G04 ================== begin FILE IDENTIFICATION RECORD ==================*
G04 Layout Name:  C:/Users/user/Desktop/work/cadcad4/allegro/OSCILLATOR.brd*
G04 Film Name:    BOTTOM*
G04 File Format:  Gerber RS274X*
G04 File Origin:  Cadence Allegro 17.2-P019*
G04 Origin Date:  Thu Aug 01 11:52:30 2019*
G04 *
G04 Layer:  ETCH/BOTTOM*
G04 Layer:  PIN/BOTTOM*
G04 Layer:  VIA CLASS/BOTTOM*
G04 *
G04 Offset:    (0.000 0.000)*
G04 Mirror:    No*
G04 Mode:      Positive*
G04 Rotation:  0*
G04 FullContactRelief:  No*
G04 UndefLineWidth:     0.000*
G04 ================== end FILE IDENTIFICATION RECORD ====================*
%FSLAX25Y25*MOMM*%
%IR0*IPPOS*OFA0.00000B0.00000*MIA0B0*SFA1.00000B1.00000*%
%ADD12C,1.524*%
%ADD13C,1.651*%
%ADD16C,1.905*%
%ADD14R,1.524X1.524*%
%ADD15R,1.905X1.905*%
%ADD11C,.61*%
%ADD10C,.635*%
%ADD17C,1.*%
%ADD18C,.5*%
%ADD20C,2.528*%
%ADD19C,2.656*%
G75*
%LPD*%
G75*
G36*
G01X754200Y508000D02*
Y754200D01*
X508000D01*
Y1314500D01*
G02X526500Y1320400I10192J-3D01*
G03Y1473600I108500J76600D01*
G02X508000Y1479500I-8308J5903D01*
G01Y2330500D01*
G02X526500Y2336400I10192J-3D01*
G03Y2489600I108500J76600D01*
G02X508000Y2495500I-8308J5903D01*
G01Y3365700D01*
X512600Y3366200D01*
G03X546500Y3609500I-12607J125768D01*
G02Y3628500I3796J9500D01*
G03Y3863500I-46500J117500D01*
G02Y3882500I3796J9500D01*
G03X512600Y4125800I-46507J117532D01*
G01X508000Y4126300D01*
Y6245800D01*
X754200D01*
Y6477000D01*
X9245800D01*
Y6245800D01*
X9525000D01*
Y3889800D01*
G02X9513700Y3879700I-10182J21D01*
G03X9453500Y3636500I-13704J-125659D01*
G02Y3617500I-3796J-9500D01*
G03X9513700Y3374300I46496J-117541D01*
G02X9525000Y3364200I1118J-10121D01*
G01Y754200D01*
X9245800D01*
Y508000D01*
X754200D01*
G37*
%LPC*%
G75*
G36*
G01X8420600Y3481800D02*
X8775200Y3127100D01*
Y2589500D01*
G02X8831000Y2458300I-75215J-109455D01*
G01X8830600Y2455800D01*
X8965200Y2321100D01*
Y1365900D01*
X8830100Y1230700D01*
X8830500Y1228200D01*
G02X8721200Y1337500I-131000J-21700D01*
G01X8723700Y1337100D01*
X8814800Y1428100D01*
Y2125500D01*
G03X8797100Y2132500I-10209J63D01*
G02X8641900Y2342200I-97623J90031D01*
G03X8642000Y2360500I-4398J9174D01*
G02X8624800Y2589500I57978J119501D01*
G01Y3064900D01*
X8314200Y3375400D01*
X8311700Y3375000D01*
G02X8421000Y3484300I-21700J131000D01*
G01X8420600Y3481800D01*
G37*
G36*
G01X5416500Y3873500D02*
G02X5323500I-46500J-117500D01*
G03Y3892500I-3796J9500D01*
G02X5416500I46500J117500D01*
G03Y3873500I3796J-9500D01*
G37*
G36*
G01X2826500Y3867500D02*
G02X2733500I-46500J-117500D01*
G03Y3886500I-3796J9500D01*
G02X2826500I46500J117500D01*
G03Y3867500I3796J-9500D01*
G37*
G36*
G01X4746500Y3617500D02*
G02X4653500I-46500J-117500D01*
G03Y3636500I-3796J9500D01*
G02X4746500I46500J117500D01*
G03Y3617500I3796J-9500D01*
G37*
G36*
G01X6958500Y2045500D02*
G02X6865500I-46500J-117500D01*
G03Y2064500I-3796J9500D01*
G02Y2299500I46500J117500D01*
G03Y2318500I-3796J9500D01*
G02Y2553500I46500J117500D01*
G03Y2572500I-3796J9500D01*
G02X7034300Y2721800I46484J117518D01*
G03X7051400Y2717100I9891J2529D01*
G01X7075300Y2741000D01*
Y3648400D01*
G03X7057400Y3655100I-10201J7D01*
G02X6915500Y3855500I-95421J82873D01*
G03Y3874500I-3796J9500D01*
G02Y4109500I46500J117500D01*
G03Y4128500I-3796J9500D01*
G02Y4363500I46500J117500D01*
G03Y4382500I-3796J9500D01*
G02X7008500I46500J117500D01*
G03Y4363500I3796J-9500D01*
G02X7087100Y4264000I-46493J-117522D01*
G01X7087300Y4262400D01*
X7275700Y4074000D01*
Y2658000D01*
X7037300Y2419600D01*
X7037100Y2418000D01*
G02X6958500Y2318500I-125093J18022D01*
G03Y2299500I3796J-9500D01*
G02Y2064500I-46500J-117500D01*
G03Y2045500I3796J-9500D01*
G37*
G36*
G01X7355100Y1448800D02*
X6776900D01*
X6293800Y1931900D01*
G03X6276400Y1924900I-7206J-7212D01*
G02X6024900Y1910000I-126372J3049D01*
G01X6024700Y1911600D01*
X5805300Y2131000D01*
Y3485000D01*
X6074700Y3754400D01*
X6074900Y3756000D01*
G02X6153500Y3855500I125093J-18022D01*
G03Y3874500I-3796J9500D01*
G02Y4109500I46500J117500D01*
G03Y4128500I-3796J9500D01*
G02X6135400Y4354600I46528J117499D01*
G03X6130200Y4373600I-5194J8790D01*
G01X6123800D01*
G02X6073600Y4423800I0J50200D01*
G01Y4576200D01*
G02X6123800Y4626400I50200J0D01*
G01X6276200D01*
G02X6326400Y4576200I0J-50200D01*
G01Y4423800D01*
G02X6276200Y4373600I-50200J0D01*
G01X6269800D01*
G03X6264600Y4354600I-6J-10210D01*
G02X6246500Y4128500I-64628J-108601D01*
G03Y4109500I3796J-9500D01*
G02Y3874500I-46500J-117500D01*
G03Y3855500I3796J-9500D01*
G02X6218000Y3612900I-46530J-117508D01*
G01X6216400Y3612700D01*
X6005700Y3402000D01*
Y2214000D01*
X6010600Y2209100D01*
G03X6027700Y2213800I7209J7229D01*
G02X6103500Y2299500I122309J-31808D01*
G03Y2318500I-3796J9500D01*
G02X6085400Y2544600I46528J117499D01*
G03X6080200Y2563600I-5194J8790D01*
G01X6073800D01*
G02X6023600Y2613800I0J50200D01*
G01Y2766200D01*
G02X6073800Y2816400I50200J0D01*
G01X6226200D01*
G02X6276400Y2766200I0J-50200D01*
G01Y2693400D01*
G03X6293800Y2686200I10185J-12D01*
G01X6465300Y2857600D01*
Y4791100D01*
X6559400Y4885200D01*
X8180500D01*
G02Y4734800I109500J-75200D01*
G01X6621600D01*
X6615700Y4728900D01*
Y2795400D01*
X6275000Y2454700D01*
X6275400Y2452200D01*
G02X6196500Y2318500I-125367J-16148D01*
G03Y2299500I3796J-9500D01*
G02X6275400Y2165800I-46467J-117552D01*
G01X6275000Y2163300D01*
X6839100Y1599200D01*
X7292900D01*
X8159400Y2465800D01*
X8159000Y2468300D01*
G02X8268300Y2359000I131000J21700D01*
G01X8265800Y2359400D01*
X7355100Y1448800D01*
G37*
G36*
G01X4429200Y1509500D02*
G02X4278800I-75200J-109500D01*
G01Y1860900D01*
X3943800Y2195900D01*
G03X3926400Y2188900I-7206J-7212D01*
G02X3846500Y2074500I-126362J3153D01*
G03Y2055500I3796J-9500D01*
G02X3674900Y1920000I-46501J-117520D01*
G01X3674700Y1921600D01*
X3409300Y2187000D01*
G03X3391900Y2181000I-7255J-7190D01*
G02X3314400Y2317100I-131920J14996D01*
G03X3328800Y2326400I4189J9312D01*
G01Y3778500D01*
X3554500Y4004200D01*
Y4006400D01*
G02X3645000Y4142700I145493J1591D01*
G03X3648300Y4159300I-3911J9405D01*
G01X3479100Y4328600D01*
Y4585400D01*
X3575000Y4681300D01*
X3574600Y4683800D01*
G02X3653500Y4817500I125367J16148D01*
G03Y4836500I-3796J9500D01*
G02X3624800Y5055600I46508J117522D01*
G01Y5636100D01*
X3779900Y5791200D01*
X4590500D01*
G02Y5640800I109500J-75200D01*
G01X3842100D01*
X3775200Y5573900D01*
Y5055600D01*
G02X3825400Y4937800I-75177J-101633D01*
G01X3825000Y4935300D01*
X4139200Y4621100D01*
Y2721100D01*
X4418200Y2442100D01*
G03X4435600Y2449100I7206J7212D01*
G02X4515500Y2563500I126362J-3153D01*
G03Y2582500I-3796J9500D01*
G02X4608500I46500J117500D01*
G03Y2563500I3796J-9500D01*
G02Y2328500I-46500J-117500D01*
G03Y2309500I3796J-9500D01*
G02Y2074500I-46500J-117500D01*
G03Y2055500I3796J-9500D01*
G02X4448500Y1882300I-46522J-117526D01*
G03X4429200Y1877800I-9113J-4551D01*
G01Y1509500D01*
G37*
G36*
G01X2769800Y1083100D02*
X2772300Y1083500D01*
G02X2663000Y974200I21700J-131000D01*
G01X2663400Y976700D01*
X2460200Y1180000D01*
Y2096500D01*
X2537000Y2173300D01*
X2536600Y2175800D01*
G02X2615500Y2309500I125367J16148D01*
G03Y2328500I-3796J9500D01*
G02X2536900Y2428000I46493J117522D01*
G01X2536700Y2429600D01*
X1799800Y3166500D01*
Y3386500D01*
G02X1754500Y3493600I100194J105509D01*
G01Y3495800D01*
X1629100Y3621200D01*
Y4416800D01*
X1774700Y4562400D01*
X1774900Y4564000D01*
G02X1853500Y4663500I125093J-18022D01*
G03Y4682500I-3796J9500D01*
G02X1946500I46500J117500D01*
G03Y4663500I3796J-9500D01*
G02X1918000Y4420900I-46530J-117508D01*
G01X1916400Y4420700D01*
X1829500Y4333800D01*
Y4145400D01*
X1995200D01*
G02X2045400Y4095200I50J-50150D01*
G01Y3904800D01*
G02X2013500Y3858000I-50179J-69D01*
G03X2009500Y3841800I3704J-9508D01*
G02X1984200Y3627300I-109497J-95827D01*
G03Y3610700I5870J-8300D01*
G02X2000200Y3386500I-84193J-118679D01*
G01Y3249500D01*
X2522600Y2727100D01*
G03X2539700Y2731800I7209J7229D01*
G02X2708500Y2582500I122316J-31782D01*
G03Y2563500I3796J-9500D01*
G02Y2328500I-46500J-117500D01*
G03Y2309500I3796J-9500D01*
G02Y2074500I-46500J-117500D01*
G03Y2055500I3796J-9500D01*
G02X2623900Y1817500I-46502J-117506D01*
G03X2610600Y1807800I-3096J-9722D01*
G01Y1242200D01*
X2769800Y1083100D01*
G37*
G36*
G01X1866100Y1051900D02*
G02X1702800Y1062000I-88109J-99387D01*
G01Y1116600D01*
X1724800Y1138600D01*
Y1348400D01*
G02X1682500Y1403500I75244J101551D01*
G03X1663500I-9500J-3796D01*
G02Y1496500I-117500J46500D01*
G03X1682500I9500J3796D01*
G02X1816200Y1575400I117552J-46467D01*
G01X1818700Y1575000D01*
X2020300Y1776600D01*
Y1857200D01*
G03X2001900Y1863200I-10195J-50D01*
G02X1853500Y2055500I-101900J74774D01*
G03Y2074500I-3796J9500D01*
G02Y2309500I46500J117500D01*
G03Y2328500I-3796J9500D01*
G02X1835400Y2554600I46528J117499D01*
G03X1830200Y2573600I-5194J8790D01*
G01X1823800D01*
G02X1773600Y2623800I0J50200D01*
G01Y2776200D01*
G02X1823800Y2826400I50200J0D01*
G01X1976200D01*
G02X2026400Y2776200I0J-50200D01*
G01Y2623800D01*
G02X1976200Y2573600I-50200J0D01*
G01X1969800D01*
G03X1964600Y2554600I-6J-10210D01*
G02X1946500Y2328500I-64628J-108601D01*
G03Y2309500I3796J-9500D01*
G02X2025400Y2175800I-46467J-117552D01*
G01X2025000Y2173300D01*
X2170700Y2027600D01*
Y1714400D01*
X1925000Y1468700D01*
X1925400Y1466200D01*
G02X1875200Y1348400I-125377J-16167D01*
G01Y1076400D01*
X1865600Y1066800D01*
G03X1866100Y1051900I7210J-7216D01*
G37*
G54D20*
X1000000Y1900000D03*
Y2408000D03*
X1254000Y2154000D03*
G54D19*
X3260000Y1180000D03*
X5370000Y1400000D03*
X8700000Y3496000D03*
X4700000Y4700000D03*
X8700000Y3800000D03*
Y4816000D03*
X8290000Y3794000D03*
%LPD*%
G75*
G54D10*
X500000Y500000D03*
Y6500000D03*
X9500000Y500000D03*
Y6500000D03*
G54D11*
X973000Y986900D03*
Y1494900D03*
Y3018900D03*
Y3526900D03*
Y4542900D03*
Y5050900D03*
Y5558900D03*
X1481000Y986900D03*
Y1494900D03*
Y2002900D03*
Y2510900D03*
Y3018900D03*
Y3526900D03*
Y4542900D03*
Y5050900D03*
Y5558900D03*
X1989000Y986900D03*
X2497000D03*
X1989000Y1494900D03*
X2497000Y3018900D03*
Y3526900D03*
Y4542900D03*
X1989000Y5050900D03*
X2497000D03*
X1989000Y5558900D03*
X2497000D03*
X3005000Y1494900D03*
Y2002900D03*
Y2510900D03*
Y3018900D03*
Y3526900D03*
Y4034900D03*
Y4542900D03*
Y5050900D03*
Y5558900D03*
X3513000Y986900D03*
X4021000D03*
X3513000Y1494900D03*
X4021000D03*
X3513000Y2002900D03*
X4021000D03*
Y2510900D03*
X3513000Y4034900D03*
Y5050900D03*
X4021000D03*
X3513000Y5558900D03*
X4021000D03*
X4529000Y986900D03*
Y1494900D03*
Y3018900D03*
Y4542900D03*
Y5050900D03*
Y5558900D03*
X5037000Y986900D03*
X5545000D03*
X5037000Y1494900D03*
X5545000D03*
X5037000Y2002900D03*
X5545000D03*
X5037000Y3018900D03*
X5545000D03*
X5037000Y3526900D03*
X5545000D03*
X5037000Y4542900D03*
X5545000D03*
X5037000Y5050900D03*
X5545000D03*
X5037000Y5558900D03*
X5545000D03*
X6053000Y986900D03*
Y1494900D03*
Y4034900D03*
Y4542900D03*
Y5050900D03*
Y5558900D03*
X6561000Y986900D03*
X7069000D03*
X6561000Y1494900D03*
Y2002900D03*
X7069000D03*
X6561000Y2510900D03*
X7069000Y3018900D03*
X6561000Y5050900D03*
X7069000D03*
X6561000Y5558900D03*
X7069000D03*
X7577000Y986900D03*
Y1494900D03*
Y2002900D03*
Y2510900D03*
Y3018900D03*
Y4542900D03*
Y5050900D03*
Y5558900D03*
X8085000Y986900D03*
X8593000D03*
X8085000Y1494900D03*
X8593000D03*
X8085000Y2002900D03*
X8593000D03*
X8085000Y2510900D03*
Y3018900D03*
X8593000D03*
Y4034900D03*
X8085000Y4542900D03*
X8593000D03*
X8085000Y5050900D03*
X8593000D03*
X8085000Y5558900D03*
X8593000D03*
G54D12*
X1000000Y1900000D03*
Y2408000D03*
X500000Y3492000D03*
Y3746000D03*
Y4000000D03*
X1900000Y1938000D03*
X1546000Y1450000D03*
X1800000D03*
X1900000Y2192000D03*
Y2446000D03*
X1254000Y2154000D03*
X1900000Y4546000D03*
Y4800000D03*
X2662000Y1938000D03*
Y2192000D03*
Y2446000D03*
Y2700000D03*
X2780000Y4004000D03*
Y3750000D03*
X3800000Y1938000D03*
Y2192000D03*
Y2446000D03*
X3700000Y4954000D03*
Y4700000D03*
X4562000Y1938000D03*
Y2192000D03*
Y2446000D03*
Y2700000D03*
X4700000Y3754000D03*
Y3500000D03*
X5370000Y3756000D03*
Y4010000D03*
X6150000Y1928000D03*
Y2182000D03*
Y2436000D03*
X6200000Y3738000D03*
Y3992000D03*
Y4246000D03*
X6912000Y1928000D03*
Y2182000D03*
Y2436000D03*
Y2690000D03*
X6962000Y3738000D03*
Y3992000D03*
Y4246000D03*
Y4500000D03*
X9500000Y3754000D03*
Y3500000D03*
G54D13*
X635000Y1397000D03*
Y2413000D03*
X1778000Y952500D03*
X2794000D03*
X3260000Y1180000D03*
Y2196000D03*
X4354000Y1400000D03*
X4700000Y4700000D03*
Y5716000D03*
X5370000Y1400000D03*
X8699500Y1206500D03*
X8290000Y2490000D03*
X8700000Y2480000D03*
X8699500Y2222500D03*
X8700000Y3496000D03*
Y3800000D03*
X8290000Y3506000D03*
Y3794000D03*
X8700000Y4816000D03*
X8290000Y4810000D03*
G54D14*
X1900000Y2700000D03*
X3800000D03*
X6150000Y2690000D03*
X6200000Y4500000D03*
G54D15*
X1900000Y4000000D03*
X3700000Y3500000D03*
G54D16*
X1900000Y3746000D03*
Y3492000D03*
X3700000Y3754000D03*
Y4008000D03*
G54D17*
G01X2662000Y2446000D02*
X1900000Y3208000D01*
Y3492000D01*
G01Y4546000D02*
X1729300Y4375300D01*
Y3662700D01*
X1900000Y3492000D01*
G01X3800000Y1938000D02*
X3429000Y2309000D01*
Y3737000D01*
X3700000Y4008000D01*
G01X6200000Y3738000D02*
X5905500Y3443500D01*
Y2172500D01*
X6150000Y1928000D01*
G01X6912000Y2436000D02*
X7175500Y2699500D01*
Y4032500D01*
X6962000Y4246000D01*
G54D18*
G01X635000Y1259100D02*
Y1397000D01*
G01D02*
Y1534900D01*
G01Y1397000D02*
X772900D01*
G01X1800000Y1450000D02*
Y1107500D01*
X1778000Y1085500D01*
Y952500D01*
G01X1800000Y1450000D02*
X2095500Y1745500D01*
Y1996500D01*
X1900000Y2192000D01*
G01X1546000Y1318500D02*
Y1450000D01*
G01D02*
Y1581500D01*
G01X1414500Y1450000D02*
X1546000D01*
G01X1768500Y4800000D02*
X1900000D01*
G01X2662000Y2192000D02*
X2535400Y2065400D01*
Y1211100D01*
X2794000Y952500D01*
G01X1900000Y4800000D02*
Y4931500D01*
G01Y4800000D02*
X2031500D01*
G01X2780000Y3618500D02*
Y3750000D01*
G01X2648500D02*
X2780000D01*
G01D02*
X2911500D01*
G01X3800000Y2192000D02*
X3554300Y2437700D01*
Y3092500D01*
X3845700Y3383900D01*
Y4068300D01*
X3554300Y4359700D01*
Y4554300D01*
X3700000Y4700000D01*
G01X4354000Y1400000D02*
Y1892000D01*
X3800000Y2446000D01*
G01X4562000Y2192000D02*
X4064000Y2690000D01*
Y4590000D01*
X3700000Y4954000D01*
G01D02*
Y5605000D01*
X3811000Y5716000D01*
X4700000D01*
G01Y3754000D02*
Y3885500D01*
G01X4568500Y3754000D02*
X4700000D01*
G01D02*
X4831500D01*
G01X5370000Y1262100D02*
Y1400000D01*
G01D02*
Y1537900D01*
G01X5232100Y1400000D02*
X5370000D01*
G01D02*
X5507900D01*
G01X5370000Y3624500D02*
Y3756000D01*
G01X5238500D02*
X5370000D01*
G01D02*
X5501500D01*
G01X8290000Y4810000D02*
X6590500D01*
X6540500Y4760000D01*
Y2826500D01*
X6150000Y2436000D01*
G01Y2182000D02*
X6808000Y1524000D01*
X7324000D01*
X8290000Y2490000D01*
G01X6068500Y4246000D02*
X6200000D01*
G01D02*
X6331500D01*
G01X8700000Y2480000D02*
X8890000Y2290000D01*
Y1397000D01*
X8699500Y1206500D01*
G01X8700000Y2480000D02*
Y3096000D01*
X8290000Y3506000D01*
G01X8700000Y3662100D02*
Y3800000D01*
G01D02*
Y3937900D01*
G01X8562100Y3800000D02*
X8700000D01*
G01D02*
X8837900D01*
G01X9500000Y3754000D02*
Y3885500D01*
G01X9368500Y3754000D02*
X9500000D01*
M02*
