G04 ================== begin FILE IDENTIFICATION RECORD ==================*
G04 Layout Name:  C:/Users/user/Desktop/work/cadcad4/allegro/OSCILLATOR.brd*
G04 Film Name:    Design*
G04 File Format:  Gerber RS274X*
G04 File Origin:  Cadence Allegro 17.2-P019*
G04 Origin Date:  Thu Aug 01 11:52:30 2019*
G04 *
G04 Layer:  VIA CLASS/BOTTOM*
G04 Layer:  VIA CLASS/TOP*
G04 Layer:  ROUTE KEEPOUT/ALL*
G04 Layer:  ROUTE KEEPIN/ALL*
G04 Layer:  REF DES/SILKSCREEN_TOP*
G04 Layer:  REF DES/SILKSCREEN_BOTTOM*
G04 Layer:  PIN/BOTTOM*
G04 Layer:  PIN/TOP*
G04 Layer:  PACKAGE KEEPIN/ALL*
G04 Layer:  PACKAGE GEOMETRY/PIN_NUMBER*
G04 Layer:  PACKAGE GEOMETRY/SILKSCREEN_TOP*
G04 Layer:  PACKAGE GEOMETRY/SILKSCREEN_BOTTOM*
G04 Layer:  PACKAGE GEOMETRY/SOLDERMASK_TOP*
G04 Layer:  PACKAGE GEOMETRY/SOLDERMASK_BOTTOM*
G04 Layer:  PACKAGE GEOMETRY/PASTEMASK_TOP*
G04 Layer:  PACKAGE GEOMETRY/PASTEMASK_BOTTOM*
G04 Layer:  ETCH/BOTTOM*
G04 Layer:  ETCH/TOP*
G04 Layer:  BOARD GEOMETRY/OUTLINE*
G04 Layer:  BOARD GEOMETRY/SILKSCREEN_TOP*
G04 Layer:  BOARD GEOMETRY/SILKSCREEN_BOTTOM*
G04 Layer:  BOARD GEOMETRY/SOLDERMASK_TOP*
G04 Layer:  BOARD GEOMETRY/SOLDERMASK_BOTTOM*
G04 Layer:  BOARD GEOMETRY/DESIGN_OUTLINE*
G04 *
G04 Offset:    (0.000 0.000)*
G04 Mirror:    No*
G04 Mode:      Positive*
G04 Rotation:  0*
G04 FullContactRelief:  No*
G04 UndefLineWidth:     0.000*
G04 ================== end FILE IDENTIFICATION RECORD ====================*
%FSLAX25Y25*MOMM*%
%IR0*IPPOS*OFA0.00000B0.00000*MIA0B0*SFA1.00000B1.00000*%
%ADD12C,1.524*%
%ADD13C,1.651*%
%ADD16C,1.905*%
%ADD14R,1.524X1.524*%
%ADD15R,1.905X1.905*%
%ADD11C,.61*%
%ADD10C,.635*%
%ADD17C,1.*%
%ADD18C,.203*%
%ADD19C,.5*%
%ADD22C,2.528*%
%ADD20C,2.656*%
%ADD23R,1.504X2.004*%
%ADD21R,2.004X1.504*%
G75*
%LPD*%
G75*
G36*
G01X754200Y508000D02*
Y754200D01*
X508000D01*
Y1314500D01*
G02X526500Y1320400I10192J-3D01*
G03Y1473600I108500J76600D01*
G02X508000Y1479500I-8308J5903D01*
G01Y2330500D01*
G02X526500Y2336400I10192J-3D01*
G03X767800Y2413000I108494J76592D01*
G03X526500Y2489600I-132808J0D01*
G02X508000Y2495500I-8308J5903D01*
G01Y3365800D01*
X512600Y3366200D01*
G03X516700Y3366700I-13248J125695D01*
G01X518700Y3367000D01*
G03X546500Y3609500I-18729J124991D01*
G02Y3628500I3796J9500D01*
G03Y3863500I-46500J117500D01*
G02Y3882500I3796J9500D01*
G03X601600Y4075200I-46511J117527D01*
G03X512600Y4125800I-101626J-75179D01*
G01X508000Y4126200D01*
Y6245800D01*
X754200D01*
Y6477000D01*
X9245800D01*
Y6245800D01*
X9525000D01*
Y3889800D01*
G02X9513700Y3879700I-10182J21D01*
G03X9453500Y3636500I-13704J-125659D01*
G02Y3617500I-3796J-9500D01*
G03X9373600Y3499900I46477J-117520D01*
G03X9401400Y3420800I126404J-10D01*
G01X9401500D01*
G03X9513700Y3374300I98548J79173D01*
G02X9525000Y3364200I1118J-10121D01*
G01Y754200D01*
X9245800D01*
Y508000D01*
X754200D01*
G37*
%LPC*%
G75*
G36*
G01X8824500Y4769800D02*
G02X8678400Y4685000I-124496J46236D01*
G02X8824500Y4769800I21614J131017D01*
G37*
G36*
G01X3801600Y4624800D02*
G02X3575000Y4681300I-101600J75175D01*
G01X3574900Y4681800D01*
G02X3653500Y4817500I125085J18162D01*
G03Y4836500I-3796J9500D01*
G02X3746500I46500J117500D01*
G03Y4817500I3796J-9500D01*
G02X3801600Y4775200I-46451J-117544D01*
G01X3985100D01*
X4135500Y4624800D01*
X3801600D01*
G37*
G36*
G01X1997300Y4465400D02*
G02X1853500Y4663500I-97316J80600D01*
G03Y4682500I-3796J9500D01*
G02X1946500I46500J117500D01*
G03Y4663500I3796J-9500D01*
G02X1997300Y4465400I-46539J-117498D01*
G37*
G36*
G01X8311700Y3663000D02*
G02X8255400Y3665800I-21703J131022D01*
G02X8313100Y3663200I34685J128194D01*
G01X8311700Y3663000D01*
G37*
G36*
G01X5416500Y3873500D02*
G02X5323500I-46500J-117500D01*
G03Y3892500I-3796J9500D01*
G02X5416500I46500J117500D01*
G03Y3873500I3796J-9500D01*
G37*
G36*
G01X2826500Y3867500D02*
G02X2733500I-46500J-117500D01*
G03Y3886500I-3796J9500D01*
G02X2826500I46500J117500D01*
G03Y3867500I3796J-9500D01*
G37*
G36*
G01X7008500Y3855500D02*
G02X6915500I-46500J-117500D01*
G03Y3874500I-3796J9500D01*
G02Y4109500I46500J117500D01*
G03Y4128500I-3796J9500D01*
G02Y4363500I46500J117500D01*
G03Y4382500I-3796J9500D01*
G02X7008500I46500J117500D01*
G03Y4363500I3796J-9500D01*
G02Y4128500I-46500J-117500D01*
G03Y4109500I3796J-9500D01*
G02X7063600Y4067200I-46451J-117544D01*
G01X7275700D01*
Y3916800D01*
X7063600D01*
G02X7008500Y3874500I-101551J75244D01*
G03Y3855500I3796J-9500D01*
G37*
G36*
G01X6216300Y3612600D02*
G02X6074900Y3720000I-16275J125354D01*
G01X6074700Y3721600D01*
X6058300Y3738000D01*
X6074700Y3754400D01*
X6074900Y3756000D01*
G02X6153500Y3855500I125093J-18022D01*
G03Y3874500I-3796J9500D01*
G02X6078400Y4026400I46497J117503D01*
G02X6153500Y4109500I121604J-34412D01*
G03Y4128500I-3796J9500D01*
G02X6135400Y4354600I46528J117499D01*
G03X6130200Y4373600I-5194J8790D01*
G01X6123800D01*
G02X6073600Y4423800I0J50200D01*
G01Y4576200D01*
G02X6123800Y4626400I50200J0D01*
G01X6276200D01*
G02X6326400Y4576200I0J-50200D01*
G01Y4423800D01*
G02X6276200Y4373600I-50200J0D01*
G01X6269800D01*
G03X6264600Y4354600I-6J-10210D01*
G02X6246500Y4128500I-64628J-108601D01*
G03Y4109500I3796J-9500D01*
G02Y3874500I-46500J-117500D01*
G03Y3855500I3796J-9500D01*
G02X6218000Y3612900I-46530J-117508D01*
G01X6216400Y3612700D01*
X6216300Y3612600D01*
G37*
G36*
G01X6615700Y3682600D02*
Y3470000D01*
X6465300Y3620400D01*
Y3833000D01*
X6615700Y3682600D01*
G37*
G36*
G01X4746500Y3617500D02*
G02X4653500I-46500J-117500D01*
G03Y3636500I-3796J9500D01*
G02X4746500I46500J117500D01*
G03Y3617500I3796J-9500D01*
G37*
G36*
G01X8311700Y3375000D02*
G02X8421000Y3484300I-21700J131000D01*
G01X8420600Y3481800D01*
G02X8314200Y3375400I-130583J24183D01*
G01X8311700Y3375000D01*
G37*
G36*
G01X8769200Y3609300D02*
G02X8632400Y3381700I-69242J-113294D01*
G02X8601900Y3406500I67613J114308D01*
G03X8601700Y3406700I-7306J-7106D01*
G02X8768800Y3609600I98267J89330D01*
G01X8768900Y3609500D01*
X8769200Y3609300D01*
G37*
G36*
G01X3577400Y3271100D02*
X3328800D01*
Y3421500D01*
X3515200D01*
X3554600Y3460900D01*
Y3595200D01*
G02X3586500Y3642000I50179J69D01*
G03X3590500Y3658200I-3704J9508D01*
G02X3615800Y3872700I109497J95827D01*
G03Y3889300I-5870J8300D01*
G02X3805500Y4108200I84231J118653D01*
G01X4139200D01*
Y3907800D01*
X3805500D01*
G02X3784200Y3889300I-105621J100095D01*
G03Y3872700I5870J-8300D01*
G02X3809500Y3658200I-84197J-118673D01*
G03X3813500Y3642000I7704J-6692D01*
G02X3845400Y3595200I-18279J-46731D01*
G01Y3575200D01*
X4139200D01*
Y3424800D01*
X3845400D01*
Y3404700D01*
G02X3795300Y3354600I-50150J50D01*
G01X3660900D01*
X3577400Y3271100D01*
G37*
G36*
G01X2000200D02*
X1799800D01*
Y3386500D01*
G02X1754500Y3493600I100194J105509D01*
G01Y3495800D01*
X1629100Y3621200D01*
Y4075200D01*
X1754600D01*
Y4095300D01*
G02X1804700Y4145400I50150J-50D01*
G01X1995300D01*
G02X2045400Y4095300I-50J-50150D01*
G01Y3904800D01*
G02X2013500Y3858000I-50179J-69D01*
G03X2009500Y3841800I3704J-9508D01*
G02X1984200Y3627300I-109497J-95827D01*
G03Y3610700I5870J-8300D01*
G02X2034100Y3435600I-84210J-118658D01*
G03X2033900Y3434900I9687J-3146D01*
G02X2000200Y3386500I-133811J57238D01*
G01Y3271100D01*
G37*
G36*
G01X8584200Y3318200D02*
Y3105500D01*
X8433800Y3255800D01*
Y3468600D01*
X8584200Y3318200D01*
G37*
G36*
G01X4139200Y3010500D02*
Y2727100D01*
X3982000Y2884300D01*
X3328800D01*
Y3084700D01*
X4065000D01*
X4139200Y3010500D01*
G37*
G36*
G01X6615700Y2795400D02*
X6513300Y2693000D01*
X6407000Y2799300D01*
X6465300Y2857600D01*
Y3024400D01*
X6615700Y2874000D01*
Y2795400D01*
G37*
G36*
G01X6005700Y2879500D02*
X5805300Y2679100D01*
Y2962500D01*
X6005700Y3162900D01*
Y2879500D01*
G37*
G36*
G01X8159000Y2468300D02*
G02X8268300Y2359000I131000J21700D01*
G01X8266900Y2359200D01*
G02X8159200Y2466900I23100J130800D01*
G01X8159000Y2468300D01*
G37*
G36*
G01X8013200Y2106800D02*
X7800400D01*
X7950800Y2257200D01*
X8163600D01*
X8013200Y2106800D01*
G37*
G36*
G01X8797100Y2132500D02*
G02X8641900Y2342200I-97623J90031D01*
G03X8642000Y2360500I-4398J9174D01*
G02X8601300Y2568900I57980J119498D01*
G03X8601900Y2569500I-6906J7506D01*
G02X8831700Y2497200I98106J-89530D01*
G02X8831000Y2458300I-131710J-17086D01*
G01X8830700Y2456400D01*
G02X8757600Y2360300I-130704J23569D01*
G03X8757500Y2342000I4398J-9174D01*
G02X8797400Y2132800I-58031J-119473D01*
G03X8797100Y2132500I7064J-7364D01*
G37*
G36*
G01X1128900Y2136000D02*
G02X1236000Y2028900I125100J18000D01*
G01X1235300Y2029000D01*
G02X1129000Y2135300I18700J125000D01*
G01X1128900Y2136000D01*
G37*
G36*
G01X4671100Y2001700D02*
G02X4515500Y2055500I-109125J-63699D01*
G03Y2074500I-3796J9500D01*
G02Y2309500I46500J117500D01*
G03Y2328500I-3796J9500D01*
G02X4436900Y2428000I46493J117522D01*
G01X4436700Y2429600D01*
X4427000Y2439300D01*
G03X4435600Y2449100I-1573J10054D01*
G02X4515500Y2563500I126362J-3153D01*
G03Y2582500I-3796J9500D01*
G02X4608500I46500J117500D01*
G03Y2563500I3796J-9500D01*
G02Y2328500I-46500J-117500D01*
G03Y2309500I3796J-9500D01*
G02Y2074500I-46500J-117500D01*
G03Y2055500I3796J-9500D01*
G02X4671100Y2001700I-46563J-117499D01*
G37*
G36*
G01X3816400Y1812700D02*
G02X3674900Y1920000I-16416J125302D01*
G01X3674700Y1921600D01*
X3658300Y1938000D01*
X3674700Y1954400D01*
X3674900Y1956000D01*
G02X3753500Y2055500I125093J-18022D01*
G03Y2074500I-3796J9500D01*
G02X3698400Y2116800I46451J117544D01*
G01X3642300D01*
X3638300Y2120800D01*
X3475500D01*
X3409300Y2187000D01*
G03X3391900Y2181000I-7255J-7190D01*
G02X3314400Y2317100I-131920J14996D01*
G03X3315500Y2316700I4030J9370D01*
G02X3369500Y2271200I-55517J-120683D01*
G01X3701500D01*
G02X3753500Y2309500I98464J-79235D01*
G03Y2328500I-3796J9500D01*
G02X3735400Y2554600I46528J117499D01*
G03X3730200Y2573600I-5194J8790D01*
G01X3723800D01*
G02X3673600Y2623800I0J50200D01*
G01Y2776200D01*
G02X3723800Y2826400I50200J0D01*
G01X3876200D01*
G02X3926400Y2776200I0J-50200D01*
G01Y2623800D01*
G02X3876200Y2573600I-50200J0D01*
G01X3869800D01*
G03X3864600Y2554600I-6J-10210D01*
G02X3846500Y2328500I-64628J-108601D01*
G03Y2309500I3796J-9500D01*
G02Y2074500I-46500J-117500D01*
G03Y2055500I3796J-9500D01*
G02X3818000Y1812900I-46530J-117508D01*
G01X3816400Y1812700D01*
G37*
G36*
G01X2708500Y2055500D02*
G02X2623900Y1817500I-46502J-117506D01*
G03X2623200Y1817700I-3152J-9706D01*
G02X2548500Y1882400I38808J120278D01*
G03X2535600Y1887300I-9112J-4558D01*
G02X2531800Y1886600I-3718J9517D01*
G01X2460200D01*
Y2096500D01*
X2537000Y2173300D01*
X2536600Y2175800D01*
G02X2615500Y2309500I125367J16148D01*
G03Y2328500I-3796J9500D01*
G02Y2563500I46500J117500D01*
G03Y2582500I-3796J9500D01*
G02X2539500Y2731000I46504J117498D01*
G03X2539700Y2731800I-9808J2877D01*
G02X2662000Y2826400I122318J-31779D01*
G02X2784300Y2731800I-18J-126379D01*
G03X2784500Y2731000I10008J2077D01*
G02X2708500Y2582500I-122504J-31002D01*
G03Y2563500I3796J-9500D01*
G02Y2328500I-46500J-117500D01*
G03Y2309500I3796J-9500D01*
G02Y2074500I-46500J-117500D01*
G03Y2055500I3796J-9500D01*
G37*
G36*
G01X6958500Y2045500D02*
G02X6865500I-46500J-117500D01*
G03Y2064500I-3796J9500D01*
G02Y2299500I46500J117500D01*
G03Y2318500I-3796J9500D01*
G02Y2553500I46500J117500D01*
G03Y2572500I-3796J9500D01*
G02X6789500Y2721000I46504J117498D01*
G03X6789700Y2721800I-9804J2876D01*
G02X6912000Y2816400I122318J-31779D01*
G02X7034300Y2721800I-18J-126379D01*
G03X7034500Y2721000I10004J2076D01*
G02X6958500Y2572500I-122504J-31002D01*
G03Y2553500I3796J-9500D01*
G02Y2318500I-46500J-117500D01*
G03Y2299500I3796J-9500D01*
G02Y2064500I-46500J-117500D01*
G03Y2045500I3796J-9500D01*
G37*
G36*
G01X6196500D02*
G02X6103500I-46500J-117500D01*
G03Y2064500I-3796J9500D01*
G02X6048400Y2106800I46451J117544D01*
G01X5992300D01*
X5982300Y2116800D01*
X5819500D01*
X5805300Y2131000D01*
Y2267200D01*
X6005700D01*
Y2214000D01*
X6010600Y2209100D01*
G03X6027700Y2213800I7209J7229D01*
G02X6057600Y2268200I122309J-31808D01*
G03X6058000Y2268600I-7020J7420D01*
G02X6103500Y2299500I92045J-86587D01*
G03Y2318500I-3796J9500D01*
G02X6085400Y2544600I46528J117499D01*
G03X6080200Y2563600I-5194J8790D01*
G01X6073800D01*
G02X6023600Y2613800I0J50200D01*
G01Y2766200D01*
G02X6073800Y2816400I50200J0D01*
G01X6226200D01*
G02X6276400Y2766200I0J-50200D01*
G01Y2613800D01*
G02X6226200Y2563600I-50200J0D01*
G01X6219800D01*
G03X6214600Y2544600I-6J-10210D01*
G02X6196500Y2318500I-64628J-108601D01*
G03Y2299500I3796J-9500D01*
G02Y2064500I-46500J-117500D01*
G03Y2045500I3796J-9500D01*
G37*
G36*
G01X1125100Y1918000D02*
G02X1018000Y2025100I-125100J-18000D01*
G01X1018700Y2025000D01*
G02X1125000Y1918700I-18700J-125000D01*
G01X1125100Y1918000D01*
G37*
G36*
G01X2170700Y1714400D02*
X2076300Y1620000D01*
X1970000Y1726300D01*
X2020300Y1776600D01*
Y1857200D01*
G03X2001900Y1863200I-10195J-50D01*
G02X1883700Y1812600I-101931J74752D01*
G01X1883600Y1812700D01*
X1882000Y1812900D01*
G02X1794000Y2006800I18016J125096D01*
G01X1794200Y2007100D01*
G02X1853500Y2055500I105814J-69117D01*
G03Y2074500I-3796J9500D01*
G02Y2309500I46500J117500D01*
G03Y2328500I-3796J9500D01*
G02X1808000Y2359400I46545J117487D01*
G03X1807700Y2359700I-7378J-7078D01*
G02X1835400Y2554600I92326J86297D01*
G03X1830200Y2573600I-5194J8790D01*
G01X1823800D01*
G02X1773600Y2623800I0J50200D01*
G01Y2776200D01*
G02X1823800Y2826400I50200J0D01*
G01X1976200D01*
G02X2026400Y2776200I0J-50200D01*
G01Y2623800D01*
G02X1976200Y2573600I-50200J0D01*
G01X1969800D01*
G03X1964600Y2554600I-6J-10210D01*
G02X1946500Y2328500I-64628J-108601D01*
G03Y2309500I3796J-9500D01*
G02X2020500Y2153900I-46507J-117514D01*
G03X2030200Y2140600I9722J-3096D01*
G01X2057700D01*
X2170700Y2027600D01*
Y1886600D01*
X2117700D01*
G03X2110500Y1869200I20J-10198D01*
G01X2170700Y1809000D01*
Y1714400D01*
G37*
G36*
G01X1663500Y1403500D02*
G02Y1496500I-117500J46500D01*
G03X1682500I9500J3796D01*
G02Y1403500I117500J-46500D01*
G03X1663500I-9500J-3796D01*
G37*
G36*
G01X8830500Y1228200D02*
G02X8721200Y1337500I-131000J-21700D01*
G01X8722600Y1337300D01*
G02X8830300Y1229600I-23100J-130800D01*
G01X8830500Y1228200D01*
G37*
G36*
G01X3129000Y1158300D02*
G02X3238300Y1049000I131000J21700D01*
G01X3236900Y1049200D01*
G02X3129200Y1156900I23100J130800D01*
G01X3129000Y1158300D01*
G37*
G36*
G01X2772300Y1083500D02*
G02X2663000Y974200I21700J-131000D01*
G01X2663400Y976700D01*
G02X2769800Y1083100I130600J-24200D01*
G01X2772300Y1083500D01*
G37*
G54D22*
X1000000Y2408000D03*
G54D20*
X4700000Y5716000D03*
X8290000Y4810000D03*
X4700000Y4700000D03*
X8700000Y3800000D03*
X5370000Y1400000D03*
X4354000D03*
X1778000Y952500D03*
G54D23*
X2535400Y1651000D03*
G54D21*
X7175500Y3492500D03*
%LPD*%
G75*
G36*
G01X246000Y246000D02*
Y754000D01*
X754000D01*
Y246000D01*
X246000D01*
G37*
G36*
G01Y6246000D02*
Y6754000D01*
X754000D01*
Y6246000D01*
X246000D01*
G37*
G36*
G01X9246000Y246000D02*
Y754000D01*
X9754000D01*
Y246000D01*
X9246000D01*
G37*
G36*
G01Y6246000D02*
Y6754000D01*
X9754000D01*
Y6246000D01*
X9246000D01*
G37*
G54D10*
X500000Y500000D03*
D03*
Y6500000D03*
D03*
X9500000Y500000D03*
D03*
Y6500000D03*
D03*
G54D11*
X973000Y986900D03*
D03*
Y1494900D03*
D03*
Y3018900D03*
D03*
Y3526900D03*
D03*
Y4542900D03*
D03*
Y5050900D03*
D03*
Y5558900D03*
D03*
X1481000Y986900D03*
D03*
Y1494900D03*
D03*
Y2002900D03*
D03*
Y2510900D03*
D03*
Y3018900D03*
D03*
Y3526900D03*
D03*
Y4542900D03*
D03*
Y5050900D03*
D03*
Y5558900D03*
D03*
X1989000Y986900D03*
D03*
X2497000D03*
D03*
X1989000Y1494900D03*
D03*
X2497000Y3018900D03*
D03*
Y3526900D03*
D03*
Y4542900D03*
D03*
X1989000Y5050900D03*
D03*
X2497000D03*
D03*
X1989000Y5558900D03*
D03*
X2497000D03*
D03*
X3005000Y1494900D03*
D03*
Y2002900D03*
D03*
Y2510900D03*
D03*
Y3018900D03*
D03*
Y3526900D03*
D03*
Y4034900D03*
D03*
Y4542900D03*
D03*
Y5050900D03*
D03*
Y5558900D03*
D03*
X3513000Y986900D03*
D03*
X4021000D03*
D03*
X3513000Y1494900D03*
D03*
X4021000D03*
D03*
X3513000Y2002900D03*
D03*
X4021000D03*
D03*
Y2510900D03*
D03*
X3513000Y4034900D03*
D03*
Y5050900D03*
D03*
X4021000D03*
D03*
X3513000Y5558900D03*
D03*
X4021000D03*
D03*
X4529000Y986900D03*
D03*
Y1494900D03*
D03*
Y3018900D03*
D03*
Y4542900D03*
D03*
Y5050900D03*
D03*
Y5558900D03*
D03*
X5037000Y986900D03*
D03*
X5545000D03*
D03*
X5037000Y1494900D03*
D03*
X5545000D03*
D03*
X5037000Y2002900D03*
D03*
X5545000D03*
D03*
X5037000Y3018900D03*
D03*
X5545000D03*
D03*
X5037000Y3526900D03*
D03*
X5545000D03*
D03*
X5037000Y4542900D03*
D03*
X5545000D03*
D03*
X5037000Y5050900D03*
D03*
X5545000D03*
D03*
X5037000Y5558900D03*
D03*
X5545000D03*
D03*
X6053000Y986900D03*
D03*
Y1494900D03*
D03*
Y4034900D03*
D03*
Y4542900D03*
D03*
Y5050900D03*
D03*
Y5558900D03*
D03*
X6561000Y986900D03*
D03*
X7069000D03*
D03*
X6561000Y1494900D03*
D03*
Y2002900D03*
D03*
X7069000D03*
D03*
X6561000Y2510900D03*
D03*
X7069000Y3018900D03*
D03*
X6561000Y5050900D03*
D03*
X7069000D03*
D03*
X6561000Y5558900D03*
D03*
X7069000D03*
D03*
X7577000Y986900D03*
D03*
Y1494900D03*
D03*
Y2002900D03*
D03*
Y2510900D03*
D03*
Y3018900D03*
D03*
Y4542900D03*
D03*
Y5050900D03*
D03*
Y5558900D03*
D03*
X8085000Y986900D03*
D03*
X8593000D03*
D03*
X8085000Y1494900D03*
D03*
X8593000D03*
D03*
X8085000Y2002900D03*
D03*
X8593000D03*
D03*
X8085000Y2510900D03*
D03*
Y3018900D03*
D03*
X8593000D03*
D03*
Y4034900D03*
D03*
X8085000Y4542900D03*
D03*
X8593000D03*
D03*
X8085000Y5050900D03*
D03*
X8593000D03*
D03*
X8085000Y5558900D03*
D03*
X8593000D03*
D03*
G54D12*
X1000000Y1900000D03*
D03*
Y2408000D03*
D03*
X500000Y3492000D03*
D03*
Y3746000D03*
D03*
Y4000000D03*
D03*
X1900000Y1938000D03*
D03*
X1546000Y1450000D03*
D03*
X1800000D03*
D03*
X1900000Y2192000D03*
D03*
Y2446000D03*
D03*
X1254000Y2154000D03*
D03*
X1900000Y4546000D03*
D03*
Y4800000D03*
D03*
X2662000Y1938000D03*
D03*
Y2192000D03*
D03*
Y2446000D03*
D03*
Y2700000D03*
D03*
X2780000Y4004000D03*
D03*
Y3750000D03*
D03*
X3800000Y1938000D03*
D03*
Y2192000D03*
D03*
Y2446000D03*
D03*
X3700000Y4954000D03*
D03*
Y4700000D03*
D03*
X4562000Y1938000D03*
D03*
Y2192000D03*
D03*
Y2446000D03*
D03*
Y2700000D03*
D03*
X4700000Y3754000D03*
D03*
Y3500000D03*
D03*
X5370000Y3756000D03*
D03*
Y4010000D03*
D03*
X6150000Y1928000D03*
D03*
Y2182000D03*
D03*
Y2436000D03*
D03*
X6200000Y3738000D03*
D03*
Y3992000D03*
D03*
Y4246000D03*
D03*
X6912000Y1928000D03*
D03*
Y2182000D03*
D03*
Y2436000D03*
D03*
Y2690000D03*
D03*
X6962000Y3738000D03*
D03*
Y3992000D03*
D03*
Y4246000D03*
D03*
Y4500000D03*
D03*
X9500000Y3754000D03*
D03*
Y3500000D03*
D03*
G54D13*
X635000Y1397000D03*
D03*
Y2413000D03*
D03*
X1778000Y952500D03*
D03*
X2794000D03*
D03*
X3260000Y1180000D03*
D03*
Y2196000D03*
D03*
X4354000Y1400000D03*
D03*
X4700000Y4700000D03*
D03*
Y5716000D03*
D03*
X5370000Y1400000D03*
D03*
X8699500Y1206500D03*
D03*
X8290000Y2490000D03*
D03*
X8700000Y2480000D03*
D03*
X8699500Y2222500D03*
D03*
X8700000Y3496000D03*
D03*
Y3800000D03*
D03*
X8290000Y3506000D03*
D03*
Y3794000D03*
D03*
X8700000Y4816000D03*
D03*
X8290000Y4810000D03*
D03*
G54D14*
X1900000Y2700000D03*
D03*
X3800000D03*
D03*
X6150000Y2690000D03*
D03*
X6200000Y4500000D03*
D03*
G54D15*
X1900000Y4000000D03*
D03*
X3700000Y3500000D03*
D03*
G54D16*
X1900000Y3746000D03*
D03*
Y3492000D03*
D03*
X3700000Y3754000D03*
D03*
Y4008000D03*
D03*
G54D17*
G01X1900000Y3746000D02*
X500000D01*
G01X1900000Y1938000D02*
X2187000Y1651000D01*
X3513000D01*
X3800000Y1938000D01*
G01X2662000Y2446000D02*
X1900000Y3208000D01*
Y3492000D01*
G01X2624400Y3746000D02*
X1900000D01*
G01Y4546000D02*
X1729300Y4375300D01*
Y3662700D01*
X1900000Y3492000D01*
G01X2662000Y2446000D02*
X3200500Y2984500D01*
X4023500D01*
X4562000Y2446000D01*
G01X2780000Y3750000D02*
X2628400D01*
G01D02*
X2624400Y3746000D01*
G01X3800000Y1938000D02*
X3429000Y2309000D01*
Y3737000D01*
X3700000Y4008000D01*
G01D02*
X5216400D01*
X5218400Y4010000D01*
X5370000D01*
G01X6912000Y2436000D02*
X6236500Y3111500D01*
X6096000D01*
X5430500Y2446000D01*
X4562000D01*
G01X5370000Y4010000D02*
X5928000D01*
X6200000Y3738000D01*
G01D02*
X5905500Y3443500D01*
Y2172500D01*
X6150000Y1928000D01*
G01X6912000Y2436000D02*
X7175500Y2699500D01*
Y4032500D01*
X6962000Y4246000D01*
G54D18*
G01X1620600Y4279400D02*
Y3212600D01*
G01D02*
X2192100D01*
G01Y4279400D02*
X1620600D01*
G01X2192100Y3212600D02*
Y4279400D01*
G01X2052400D02*
Y3212600D01*
G01X3407900Y3220600D02*
X3979400D01*
G01D02*
Y4287400D01*
G01X3407900D02*
Y3220600D01*
G01X3547600D02*
Y4287400D01*
G01X3979400D02*
X3407900D01*
G54D19*
G01X635000Y1259100D02*
Y1397000D01*
G01D02*
Y1534900D01*
G01Y1397000D02*
X772900D01*
G01X635000Y1259100D02*
Y1397000D01*
G01D02*
Y1534900D01*
G01Y1397000D02*
X772900D01*
G01X1000000Y1900000D02*
X1254000Y2154000D01*
G01X1000000Y2408000D02*
X1735400D01*
X1773400Y2446000D01*
X1900000D01*
G01X1000000Y2408000D02*
X773000D01*
X768000Y2413000D01*
X635000D01*
G01X500000Y3492000D02*
X645700Y3346300D01*
X3546300D01*
X3700000Y3500000D01*
G01X500000Y4000000D02*
X1900000D01*
G01X1800000Y1450000D02*
Y1107500D01*
X1778000Y1085500D01*
Y952500D01*
G01X1800000Y1450000D02*
X2095500Y1745500D01*
Y1996500D01*
X1900000Y2192000D01*
G01X1546000Y1318500D02*
Y1450000D01*
G01D02*
Y1581500D01*
G01X1414500Y1450000D02*
X1546000D01*
G01Y1318500D02*
Y1450000D01*
G01D02*
Y1581500D01*
G01X1414500Y1450000D02*
X1546000D01*
G01X1254000Y2154000D02*
X1758900D01*
X1847500Y2065400D01*
X2535400D01*
X2662000Y2192000D01*
G01X1768500Y4800000D02*
X1900000D01*
G01X1768500D02*
X1900000D01*
G01X2662000Y2192000D02*
X2535400Y2065400D01*
Y1211100D01*
X2794000Y952500D01*
G01X1900000Y4000000D02*
X2649400D01*
X2653400Y4004000D01*
X2780000D01*
G01X1900000Y4800000D02*
Y4931500D01*
G01Y4800000D02*
X2031500D01*
G01X1900000D02*
Y4931500D01*
G01Y4800000D02*
X2031500D01*
G01X2794000Y952500D02*
X3032500D01*
X3260000Y1180000D01*
G01Y2196000D02*
X3669400D01*
X3673400Y2192000D01*
X3800000D01*
G01X2780000Y3618500D02*
Y3750000D01*
G01X2648500D02*
X2780000D01*
G01D02*
X2911500D01*
G01X2780000Y3618500D02*
Y3750000D01*
G01D02*
X2911500D01*
G01X3800000Y2192000D02*
X3554300Y2437700D01*
Y3092500D01*
X3845700Y3383900D01*
Y4068300D01*
X3554300Y4359700D01*
Y4554300D01*
X3700000Y4700000D01*
G01X4354000Y1400000D02*
Y1892000D01*
X3800000Y2446000D01*
G01X4562000Y2192000D02*
X4064000Y2690000D01*
Y4590000D01*
X3700000Y4954000D01*
G01Y3500000D02*
X4700000D01*
G01X3549400Y3754000D02*
X3700000D01*
G01D02*
X3850600D01*
G01X3700000Y4700000D02*
X4700000D01*
G01X3700000Y4954000D02*
Y5605000D01*
X3811000Y5716000D01*
X4700000D01*
G01X4562000Y2192000D02*
X6013400D01*
X6023400Y2182000D01*
X6150000D01*
G01X4700000Y3754000D02*
Y3885500D01*
G01X4568500Y3754000D02*
X4700000D01*
G01D02*
X4831500D01*
G01X4700000D02*
Y3885500D01*
G01X4568500Y3754000D02*
X4700000D01*
G01D02*
X4831500D01*
G01X5370000Y1262100D02*
Y1400000D01*
G01D02*
Y1537900D01*
G01X5232100Y1400000D02*
X5370000D01*
G01D02*
X5507900D01*
G01X5370000Y1262100D02*
Y1400000D01*
G01D02*
Y1537900D01*
G01X5232100Y1400000D02*
X5370000D01*
G01D02*
X5507900D01*
G01X5370000Y3624500D02*
Y3756000D01*
G01X5238500D02*
X5370000D01*
G01D02*
X5501500D01*
G01X5370000Y3624500D02*
Y3756000D01*
G01X5238500D02*
X5370000D01*
G01D02*
X5501500D01*
G01X8290000Y4810000D02*
X6590500D01*
X6540500Y4760000D01*
Y2826500D01*
X6150000Y2436000D01*
G01Y2182000D02*
X6808000Y1524000D01*
X7324000D01*
X8290000Y2490000D01*
G01Y3506000D02*
X8157000D01*
X8143500Y3492500D01*
X6699500D01*
X6200000Y3992000D01*
G01X6068500Y4246000D02*
X6200000D01*
G01D02*
X6331500D01*
G01X6068500D02*
X6200000D01*
G01D02*
X6331500D01*
G01X6912000Y2182000D02*
X8526000D01*
X8566500Y2222500D01*
X8699500D01*
G01X6962000Y3992000D02*
X8280100D01*
X8700000Y3572100D01*
Y3496000D01*
G01Y2480000D02*
X8890000Y2290000D01*
Y1397000D01*
X8699500Y1206500D01*
G01Y2222500D02*
X8509000Y2413000D01*
Y3575000D01*
X8290000Y3794000D01*
G01X8700000Y2480000D02*
Y3096000D01*
X8290000Y3506000D01*
G01X8700000Y3662100D02*
Y3800000D01*
G01D02*
Y3937900D01*
G01X8562100Y3800000D02*
X8700000D01*
G01D02*
X8837900D01*
G01X8700000D02*
Y3937900D01*
G01Y3800000D02*
X8837900D01*
G01X8700000Y3496000D02*
X9369400D01*
X9373400Y3500000D01*
X9500000D01*
G01X8290000Y4810000D02*
X8561000D01*
X8567000Y4816000D01*
X8700000D01*
G01X9500000Y3754000D02*
Y3885500D01*
G01X9368500Y3754000D02*
X9500000D01*
G01D02*
Y3885500D01*
G01X9368500Y3754000D02*
X9500000D01*
M02*
