G04 ================== begin FILE IDENTIFICATION RECORD ==================*
G04 Layout Name:  C:/Users/user/Desktop/work/cadcad4/allegro/OSCILLATOR.brd*
G04 Film Name:    SolderB*
G04 File Format:  Gerber RS274X*
G04 File Origin:  Cadence Allegro 17.2-P019*
G04 Origin Date:  Thu Aug 01 11:52:30 2019*
G04 *
G04 Layer:  VIA CLASS/SOLDERMASK_BOTTOM*
G04 Layer:  PIN/SOLDERMASK_BOTTOM*
G04 Layer:  PACKAGE GEOMETRY/SOLDERMASK_BOTTOM*
G04 Layer:  BOARD GEOMETRY/SOLDERMASK_BOTTOM*
G04 *
G04 Offset:    (0.000 0.000)*
G04 Mirror:    No*
G04 Mode:      Positive*
G04 Rotation:  0*
G04 FullContactRelief:  No*
G04 UndefLineWidth:     0.000*
G04 ================== end FILE IDENTIFICATION RECORD ====================*
%FSLAX25Y25*MOMM*%
%IR0*IPPOS*OFA0.00000B0.00000*MIA0B0*SFA1.00000B1.00000*%
%ADD13C,2.032*%
%ADD11C,1.118*%
%ADD12C,1.905*%
%ADD10C,3.683*%
%ADD14R,1.905X1.905*%
%LPD*%
G75*
G54D10*
X500000Y500000D03*
Y6500000D03*
X9500000Y500000D03*
Y6500000D03*
G54D11*
X973000Y986900D03*
Y1494900D03*
Y3018900D03*
Y3526900D03*
Y4542900D03*
Y5050900D03*
Y5558900D03*
X1481000Y986900D03*
Y1494900D03*
Y2002900D03*
Y2510900D03*
Y3018900D03*
Y3526900D03*
Y4542900D03*
Y5050900D03*
Y5558900D03*
X1989000Y986900D03*
X2497000D03*
X1989000Y1494900D03*
X2497000Y3018900D03*
Y3526900D03*
Y4542900D03*
X1989000Y5050900D03*
X2497000D03*
X1989000Y5558900D03*
X2497000D03*
X3005000Y1494900D03*
Y2002900D03*
Y2510900D03*
Y3018900D03*
Y3526900D03*
Y4034900D03*
Y4542900D03*
Y5050900D03*
Y5558900D03*
X3513000Y986900D03*
X4021000D03*
X3513000Y1494900D03*
X4021000D03*
X3513000Y2002900D03*
X4021000D03*
Y2510900D03*
X3513000Y4034900D03*
Y5050900D03*
X4021000D03*
X3513000Y5558900D03*
X4021000D03*
X4529000Y986900D03*
Y1494900D03*
Y3018900D03*
Y4542900D03*
Y5050900D03*
Y5558900D03*
X5037000Y986900D03*
X5545000D03*
X5037000Y1494900D03*
X5545000D03*
X5037000Y2002900D03*
X5545000D03*
X5037000Y3018900D03*
X5545000D03*
X5037000Y3526900D03*
X5545000D03*
X5037000Y4542900D03*
X5545000D03*
X5037000Y5050900D03*
X5545000D03*
X5037000Y5558900D03*
X5545000D03*
X6053000Y986900D03*
Y1494900D03*
Y4034900D03*
Y4542900D03*
Y5050900D03*
Y5558900D03*
X6561000Y986900D03*
X7069000D03*
X6561000Y1494900D03*
Y2002900D03*
X7069000D03*
X6561000Y2510900D03*
X7069000Y3018900D03*
X6561000Y5050900D03*
X7069000D03*
X6561000Y5558900D03*
X7069000D03*
X7577000Y986900D03*
Y1494900D03*
Y2002900D03*
Y2510900D03*
Y3018900D03*
Y4542900D03*
Y5050900D03*
Y5558900D03*
X8085000Y986900D03*
X8593000D03*
X8085000Y1494900D03*
X8593000D03*
X8085000Y2002900D03*
X8593000D03*
X8085000Y2510900D03*
Y3018900D03*
X8593000D03*
Y4034900D03*
X8085000Y4542900D03*
X8593000D03*
X8085000Y5050900D03*
X8593000D03*
X8085000Y5558900D03*
X8593000D03*
G54D12*
X1000000Y1900000D03*
Y2408000D03*
X500000Y3492000D03*
Y3746000D03*
Y4000000D03*
X1900000Y1938000D03*
X1546000Y1450000D03*
X1800000D03*
X1900000Y2192000D03*
Y2446000D03*
X1254000Y2154000D03*
X1900000Y3746000D03*
Y3492000D03*
Y4546000D03*
Y4800000D03*
X2662000Y1938000D03*
Y2192000D03*
Y2446000D03*
Y2700000D03*
X2780000Y4004000D03*
Y3750000D03*
X3800000Y1938000D03*
Y2192000D03*
Y2446000D03*
X3700000Y3754000D03*
Y4008000D03*
Y4954000D03*
Y4700000D03*
X4562000Y1938000D03*
Y2192000D03*
Y2446000D03*
Y2700000D03*
X4700000Y3754000D03*
Y3500000D03*
X5370000Y3756000D03*
Y4010000D03*
X6150000Y1928000D03*
Y2182000D03*
Y2436000D03*
X6200000Y3738000D03*
Y3992000D03*
Y4246000D03*
X6912000Y1928000D03*
Y2182000D03*
Y2436000D03*
Y2690000D03*
X6962000Y3738000D03*
Y3992000D03*
Y4246000D03*
Y4500000D03*
X9500000Y3754000D03*
Y3500000D03*
G54D13*
X635000Y1397000D03*
Y2413000D03*
X1778000Y952500D03*
X2794000D03*
X3260000Y1180000D03*
Y2196000D03*
X4354000Y1400000D03*
X4700000Y4700000D03*
Y5716000D03*
X5370000Y1400000D03*
X8699500Y1206500D03*
X8290000Y2490000D03*
X8700000Y2480000D03*
X8699500Y2222500D03*
X8700000Y3496000D03*
Y3800000D03*
X8290000Y3506000D03*
Y3794000D03*
X8700000Y4816000D03*
X8290000Y4810000D03*
G54D14*
X1900000Y2700000D03*
Y4000000D03*
X3800000Y2700000D03*
X3700000Y3500000D03*
X6150000Y2690000D03*
X6200000Y4500000D03*
M02*
