G04 ================== begin FILE IDENTIFICATION RECORD ==================*
G04 Layout Name:  C:/Users/user/Desktop/work/cadcad4/allegro/OSCILLATOR.brd*
G04 Film Name:    TOP*
G04 File Format:  Gerber RS274X*
G04 File Origin:  Cadence Allegro 17.2-P019*
G04 Origin Date:  Thu Aug 01 11:52:30 2019*
G04 *
G04 Layer:  ETCH/TOP*
G04 Layer:  PIN/TOP*
G04 Layer:  VIA CLASS/TOP*
G04 *
G04 Offset:    (0.000 0.000)*
G04 Mirror:    No*
G04 Mode:      Positive*
G04 Rotation:  0*
G04 FullContactRelief:  No*
G04 UndefLineWidth:     0.000*
G04 ================== end FILE IDENTIFICATION RECORD ====================*
%FSLAX25Y25*MOMM*%
%IR0*IPPOS*OFA0.00000B0.00000*MIA0B0*SFA1.00000B1.00000*%
%ADD12C,1.524*%
%ADD13C,1.651*%
%ADD16C,1.905*%
%ADD14R,1.524X1.524*%
%ADD15R,1.905X1.905*%
%ADD11C,.61*%
%ADD10C,.635*%
%ADD17C,1.*%
%ADD18C,.5*%
%ADD19C,2.656*%
G75*
%LPD*%
G75*
G36*
G01X754200Y508000D02*
Y754200D01*
X508000D01*
Y1314500D01*
G02X526500Y1320400I10192J-3D01*
G03Y1473600I108500J76600D01*
G02X508000Y1479500I-8308J5903D01*
G01Y2330500D01*
G02X526500Y2336400I10192J-3D01*
G03X740800Y2332800I108467J76607D01*
G01X898400D01*
G03X1101600I101600J75200D01*
G01X1766500D01*
X1793300Y2359600D01*
G02X1808000Y2359400I7253J-7208D01*
G03X1853500Y2328500I92045J86587D01*
G02Y2309500I-3796J-9500D01*
G03X1779200Y2229200I46480J-117531D01*
G01X1355600D01*
G03X1128600Y2137800I-101630J-75180D01*
G01X1129000Y2135300D01*
X1018700Y2025000D01*
X1016200Y2025400D01*
G03X1125400Y1916200I-16200J-125400D01*
G01X1125000Y1918700D01*
X1235300Y2029000D01*
X1237800Y2028600D01*
G03X1355600Y2078800I16167J125377D01*
G01X1727800D01*
X1796200Y2010300D01*
X1794000Y2006800D01*
G03X1882000Y1812900I106016J-68804D01*
G01X1883600Y1812700D01*
X2145500Y1550800D01*
X3554500D01*
X3816400Y1812700D01*
X3818000Y1812900D01*
G03X3846500Y2055500I-18030J125092D01*
G02Y2074500I3796J9500D01*
G03Y2309500I-46500J117500D01*
G02Y2328500I3796J9500D01*
G03X3864600Y2554600I-46528J117499D01*
G02X3869800Y2573600I5194J8790D01*
G01X3876200D01*
G03X3926400Y2623800I0J50200D01*
G01Y2776200D01*
G03X3876200Y2826400I-50200J0D01*
G01X3723800D01*
G03X3673600Y2776200I0J-50200D01*
G01Y2623800D01*
G03X3723800Y2573600I50200J0D01*
G01X3730200D01*
G02X3735400Y2554600I6J-10210D01*
G03X3753500Y2328500I64628J-108601D01*
G02Y2309500I-3796J-9500D01*
G03X3701500Y2271200I46464J-117535D01*
G01X3369500D01*
G03Y2120800I-109500J-75200D01*
G01X3638300D01*
X3642300Y2116800D01*
X3698400D01*
G03X3753500Y2074500I101551J75244D01*
G02Y2055500I-3796J-9500D01*
G03X3674900Y1956000I46493J-117522D01*
G01X3674700Y1954400D01*
X3471500Y1751200D01*
X2228500D01*
X2110500Y1869200D01*
G02X2117700Y1886600I7220J7202D01*
G01X2531800D01*
G03X2535600Y1887300I82J10217D01*
G02X2548500Y1882400I3788J-9458D01*
G03X2708500Y2055500I113508J55577D01*
G02Y2074500I3796J9500D01*
G03Y2309500I-46500J117500D01*
G02Y2328500I3796J9500D01*
G03X2787100Y2428000I-46493J117522D01*
G01X2787300Y2429600D01*
X3242000Y2884300D01*
X3982000D01*
X4436700Y2429600D01*
X4436900Y2428000D01*
G03X4515500Y2328500I125093J18022D01*
G02Y2309500I-3796J-9500D01*
G03Y2074500I46500J-117500D01*
G02Y2055500I-3796J-9500D01*
G03X4608500I46500J-117500D01*
G02Y2074500I3796J9500D01*
G03X4663600Y2116800I-46451J117544D01*
G01X5982300D01*
X5992300Y2106800D01*
X6048400D01*
G03X6103500Y2064500I101551J75244D01*
G02Y2045500I-3796J-9500D01*
G03X6196500I46500J-117500D01*
G02Y2064500I3796J9500D01*
G03Y2299500I-46500J117500D01*
G02Y2318500I3796J9500D01*
G03X6214600Y2544600I-46528J117499D01*
G02X6219800Y2563600I5194J8790D01*
G01X6226200D01*
G03X6276400Y2613800I0J50200D01*
G01Y2766200D01*
G03X6226200Y2816400I-50200J0D01*
G01X6073800D01*
G03X6023600Y2766200I0J-50200D01*
G01Y2613800D01*
G03X6073800Y2563600I50200J0D01*
G01X6080200D01*
G02X6085400Y2544600I6J-10210D01*
G03X6103500Y2318500I64628J-108601D01*
G02Y2299500I-3796J-9500D01*
G03X6058000Y2268600I46545J-117487D01*
G02X6044800Y2267200I-7419J7022D01*
G01X4663600D01*
G03X4608500Y2309500I-101551J-75244D01*
G02Y2328500I3796J9500D01*
G03X4639100Y2345800I-46303J117612D01*
G01X5472000D01*
X6137500Y3011300D01*
X6195000D01*
X6786700Y2419600D01*
X6786900Y2418000D01*
G03X6865500Y2318500I125093J18022D01*
G02Y2299500I-3796J-9500D01*
G03Y2064500I46500J-117500D01*
G02Y2045500I-3796J-9500D01*
G03X6958500I46500J-117500D01*
G02Y2064500I3796J9500D01*
G03X7013600Y2106800I-46451J117544D01*
G01X8557100D01*
X8585200Y2134900D01*
G02X8600100Y2134400I7216J-7210D01*
G03X8757500Y2342000I99365J88132D01*
G02X8757600Y2360300I4498J9126D01*
G03X8601900Y2569500I-57608J119666D01*
G02X8584200Y2576400I-7501J6912D01*
G01Y3399600D01*
G02X8601900Y3406500I10199J-12D01*
G03X8809500Y3420800I98128J89494D01*
G01X9401500D01*
G03X9513700Y3374300I98548J79173D01*
G02X9525000Y3364200I1118J-10121D01*
G01Y754200D01*
X9245800D01*
Y508000D01*
X6349800D01*
Y767700D01*
X3251800D01*
Y508000D01*
X754200D01*
G37*
G36*
G01X2030200Y2140600D02*
G02X2020500Y2153900I22J10204D01*
G03X1946500Y2309500I-120507J38086D01*
G02Y2328500I3796J9500D01*
G03X1964600Y2554600I-46528J117499D01*
G02X1969800Y2573600I5194J8790D01*
G01X1976200D01*
G03X2026400Y2623800I0J50200D01*
G01Y2776200D01*
G03X1976200Y2826400I-50200J0D01*
G01X1823800D01*
G03X1773600Y2776200I0J-50200D01*
G01Y2623800D01*
G03X1823800Y2573600I50200J0D01*
G01X1830200D01*
G02X1835400Y2554600I6J-10210D01*
G03X1798400Y2521200I64526J-108675D01*
G01X1742300D01*
X1704300Y2483200D01*
X1101600D01*
G03X898400I-101600J-75200D01*
G01X804100D01*
X799100Y2488200D01*
X744500D01*
G03X526500Y2489600I-109487J-75185D01*
G02X508000Y2495500I-8308J5903D01*
G01Y3365800D01*
X512600Y3366200D01*
G03X516200Y3366600I-12160J125838D01*
G01X518700Y3367000D01*
X614600Y3271100D01*
X3577400D01*
X3660900Y3354600D01*
X3795200D01*
G03X3845400Y3404800I50J50150D01*
G01Y3424800D01*
X4598400D01*
G03X4746500Y3617500I101603J75174D01*
G02Y3636500I3796J9500D01*
G03X4653500I-46500J117500D01*
G02Y3617500I-3796J-9500D01*
G03X4598400Y3575200I46451J-117544D01*
G01X3845400D01*
Y3595200D01*
G03X3813500Y3642000I-50179J69D01*
G02X3809500Y3658200I3704J9508D01*
G03X3784200Y3872700I-109497J95827D01*
G02Y3889300I5870J8300D01*
G03X3805500Y3907800I-84321J118595D01*
G01X5257900D01*
X5259900Y3909800D01*
X5292900D01*
X5294300Y3908800D01*
G03X5323500Y3892500I75660J101233D01*
G02Y3873500I-3796J-9500D01*
G03X5416500I46500J-117500D01*
G02Y3892500I3796J9500D01*
G03X5447100Y3909800I-46303J117612D01*
G01X5886500D01*
X6074700Y3721600D01*
X6074900Y3720000D01*
G03X6326400Y3734900I125128J17949D01*
G02X6343800Y3741900I10194J-212D01*
G01X6668400Y3417300D01*
X8174600D01*
X8175700Y3418400D01*
G02X8190600Y3417900I7216J-7210D01*
G03X8416000Y3548000I99413J88070D01*
G01X8415000Y3551000D01*
X8420800Y3556800D01*
X8433800Y3543900D01*
Y2381900D01*
X8526700Y2289000D01*
X8494900Y2257200D01*
X7013600D01*
G03X6958500Y2299500I-101551J-75244D01*
G02Y2318500I3796J9500D01*
G03Y2553500I-46500J117500D01*
G02Y2572500I3796J9500D01*
G03X6789700Y2721800I-46484J117518D01*
G02X6772600Y2717100I-9891J2529D01*
G01X6278000Y3211700D01*
X6054500D01*
X5389000Y2546200D01*
X4639100D01*
G03X4608500Y2563500I-76903J-100312D01*
G02Y2582500I3796J9500D01*
G03X4439700Y2731800I-46484J117518D01*
G02X4422600Y2727100I-9891J2529D01*
G01X4065000Y3084700D01*
X3159000D01*
X2801400Y2727100D01*
G02X2784300Y2731800I-7209J7229D01*
G03X2615500Y2582500I-122316J-31782D01*
G02Y2563500I-3796J-9500D01*
G03Y2328500I46500J-117500D01*
G02Y2309500I-3796J-9500D01*
G03X2536600Y2175800I46467J-117552D01*
G01X2537000Y2173300D01*
X2504300Y2140600D01*
X2030200D01*
G37*
G36*
G01X2043500Y3421500D02*
G02X2034100Y3435600I32J10204D01*
G03X1984200Y3610700I-134110J56442D01*
G02Y3627300I5870J8300D01*
G03X2009500Y3841800I-84197J118673D01*
G02X2013500Y3858000I7704J6692D01*
G03X2045400Y3904800I-18279J46731D01*
G01Y3924800D01*
X2681500D01*
G03X2733500Y3886500I98464J79235D01*
G02Y3867500I-3796J-9500D01*
G03X2826500I46500J-117500D01*
G02Y3886500I3796J9500D01*
G03X2678400Y4079200I-46497J117526D01*
G01X2622300D01*
X2618300Y4075200D01*
X2045400D01*
Y4095200D01*
G03X1995200Y4145400I-50150J50D01*
G01X1804800D01*
G03X1754600Y4095200I-50J-50150D01*
G01Y4075200D01*
X601600D01*
G03X512600Y4125800I-101626J-75179D01*
G01X508000Y4126200D01*
Y6245800D01*
X754200D01*
Y6477000D01*
X3696300D01*
Y6363300D01*
X5933500D01*
Y6477000D01*
X9245800D01*
Y6245800D01*
X9525000D01*
Y3889800D01*
G02X9513700Y3879700I-10182J21D01*
G03X9453500Y3636500I-13704J-125659D01*
G02Y3617500I-3796J-9500D01*
G03X9398400Y3575200I46451J-117544D01*
G01X9342300D01*
X9338300Y3571200D01*
X8809500D01*
G03X8769500Y3609200I-109487J-75197D01*
G01X8768900Y3609500D01*
X8725000Y3653500D01*
G02X8729900Y3670600I7214J7185D01*
G03X8570600Y3829900I-29900J129400D01*
G02X8553500Y3825000I-9915J2314D01*
G01X8311200Y4067200D01*
X7063600D01*
G03X7008500Y4109500I-101551J-75244D01*
G02Y4128500I3796J9500D01*
G03Y4363500I-46500J117500D01*
G02Y4382500I3796J9500D01*
G03X6915500I-46500J117500D01*
G02Y4363500I-3796J-9500D01*
G03Y4128500I46500J-117500D01*
G02Y4109500I-3796J-9500D01*
G03Y3874500I46500J-117500D01*
G02Y3855500I-3796J-9500D01*
G03X7008500I46500J-117500D01*
G02Y3874500I3796J9500D01*
G03X7063600Y3916800I-46451J117544D01*
G01X8201900D01*
G02X8208100Y3898600I-72J-10180D01*
G03X8311700Y3663000I81866J-104579D01*
G01X8314200Y3663400D01*
X8324000Y3653700D01*
G02X8314900Y3636500I-7228J-7183D01*
G03X8180500Y3581200I-24891J-130477D01*
G01X8125900D01*
X8112400Y3567700D01*
X6730600D01*
X6325000Y3973300D01*
X6325400Y3975800D01*
G03X6246500Y4109500I-125367J16148D01*
G02Y4128500I3796J9500D01*
G03X6264600Y4354600I-46528J117499D01*
G02X6269800Y4373600I5194J8790D01*
G01X6276200D01*
G03X6326400Y4423800I0J50200D01*
G01Y4576200D01*
G03X6276200Y4626400I-50200J0D01*
G01X6123800D01*
G03X6073600Y4576200I0J-50200D01*
G01Y4423800D01*
G03X6123800Y4373600I50200J0D01*
G01X6130200D01*
G02X6135400Y4354600I6J-10210D01*
G03X6153500Y4128500I64628J-108601D01*
G02Y4109500I-3796J-9500D01*
G03X6077700Y4023800I46509J-117508D01*
G02X6060600Y4019100I-9891J2529D01*
G01X5969500Y4110200D01*
X5447100D01*
G03X5292900I-77100J-100200D01*
G01X5176900D01*
X5174900Y4108200D01*
X3805500D01*
G03X3615800Y3889300I-105469J-100247D01*
G02Y3872700I-5870J-8300D01*
G03X3590500Y3658200I84197J-118673D01*
G02X3586500Y3642000I-7704J-6692D01*
G03X3554600Y3595200I18279J-46731D01*
G01Y3460900D01*
X3515200Y3421500D01*
X2043500D01*
G37*
%LPC*%
G75*
G36*
G01X3001400Y1027700D02*
X3129400Y1155800D01*
X3129000Y1158300D01*
G02X3238300Y1049000I131000J21700D01*
G01X3235800Y1049400D01*
X3063600Y877300D01*
X2903500D01*
G02Y1027700I-109500J75200D01*
G01X3001400D01*
G37*
G36*
G01X1663500Y1403500D02*
G02Y1496500I-117500J46500D01*
G03X1682500I9500J3796D01*
G02Y1403500I117500J-46500D01*
G03X1663500I-9500J-3796D01*
G37*
G36*
G01X8594900Y4734800D02*
X8399500D01*
G02Y4885200I-109500J75200D01*
G01X8529900D01*
X8535900Y4891200D01*
X8590500D01*
G02X8594900Y4734800I109489J-75182D01*
G37*
G36*
G01X4590500Y4775200D02*
G02Y4624800I109500J-75200D01*
G01X3801600D01*
G02X3653500Y4817500I-101603J75174D01*
G03Y4836500I-3796J9500D01*
G02X3746500I46500J117500D01*
G03Y4817500I3796J-9500D01*
G02X3801600Y4775200I-46451J-117544D01*
G01X4590500D01*
G37*
G36*
G01X1946500Y4663500D02*
G02X1853500I-46500J-117500D01*
G03Y4682500I-3796J9500D01*
G02X1946500I46500J117500D01*
G03Y4663500I3796J-9500D01*
G37*
G54D19*
X1778000Y952500D03*
X4354000Y1400000D03*
X5370000D03*
X8699500Y1206500D03*
X8290000Y2490000D03*
X4700000Y5716000D03*
%LPD*%
G75*
G54D10*
X500000Y500000D03*
Y6500000D03*
X9500000Y500000D03*
Y6500000D03*
G54D11*
X973000Y986900D03*
Y1494900D03*
Y3018900D03*
Y3526900D03*
Y4542900D03*
Y5050900D03*
Y5558900D03*
X1481000Y986900D03*
Y1494900D03*
Y2002900D03*
Y2510900D03*
Y3018900D03*
Y3526900D03*
Y4542900D03*
Y5050900D03*
Y5558900D03*
X1989000Y986900D03*
X2497000D03*
X1989000Y1494900D03*
X2497000Y3018900D03*
Y3526900D03*
Y4542900D03*
X1989000Y5050900D03*
X2497000D03*
X1989000Y5558900D03*
X2497000D03*
X3005000Y1494900D03*
Y2002900D03*
Y2510900D03*
Y3018900D03*
Y3526900D03*
Y4034900D03*
Y4542900D03*
Y5050900D03*
Y5558900D03*
X3513000Y986900D03*
X4021000D03*
X3513000Y1494900D03*
X4021000D03*
X3513000Y2002900D03*
X4021000D03*
Y2510900D03*
X3513000Y4034900D03*
Y5050900D03*
X4021000D03*
X3513000Y5558900D03*
X4021000D03*
X4529000Y986900D03*
Y1494900D03*
Y3018900D03*
Y4542900D03*
Y5050900D03*
Y5558900D03*
X5037000Y986900D03*
X5545000D03*
X5037000Y1494900D03*
X5545000D03*
X5037000Y2002900D03*
X5545000D03*
X5037000Y3018900D03*
X5545000D03*
X5037000Y3526900D03*
X5545000D03*
X5037000Y4542900D03*
X5545000D03*
X5037000Y5050900D03*
X5545000D03*
X5037000Y5558900D03*
X5545000D03*
X6053000Y986900D03*
Y1494900D03*
Y4034900D03*
Y4542900D03*
Y5050900D03*
Y5558900D03*
X6561000Y986900D03*
X7069000D03*
X6561000Y1494900D03*
Y2002900D03*
X7069000D03*
X6561000Y2510900D03*
X7069000Y3018900D03*
X6561000Y5050900D03*
X7069000D03*
X6561000Y5558900D03*
X7069000D03*
X7577000Y986900D03*
Y1494900D03*
Y2002900D03*
Y2510900D03*
Y3018900D03*
Y4542900D03*
Y5050900D03*
Y5558900D03*
X8085000Y986900D03*
X8593000D03*
X8085000Y1494900D03*
X8593000D03*
X8085000Y2002900D03*
X8593000D03*
X8085000Y2510900D03*
Y3018900D03*
X8593000D03*
Y4034900D03*
X8085000Y4542900D03*
X8593000D03*
X8085000Y5050900D03*
X8593000D03*
X8085000Y5558900D03*
X8593000D03*
G54D12*
X1000000Y1900000D03*
Y2408000D03*
X500000Y3492000D03*
Y3746000D03*
Y4000000D03*
X1900000Y1938000D03*
X1546000Y1450000D03*
X1800000D03*
X1900000Y2192000D03*
Y2446000D03*
X1254000Y2154000D03*
X1900000Y4546000D03*
Y4800000D03*
X2662000Y1938000D03*
Y2192000D03*
Y2446000D03*
Y2700000D03*
X2780000Y4004000D03*
Y3750000D03*
X3800000Y1938000D03*
Y2192000D03*
Y2446000D03*
X3700000Y4954000D03*
Y4700000D03*
X4562000Y1938000D03*
Y2192000D03*
Y2446000D03*
Y2700000D03*
X4700000Y3754000D03*
Y3500000D03*
X5370000Y3756000D03*
Y4010000D03*
X6150000Y1928000D03*
Y2182000D03*
Y2436000D03*
X6200000Y3738000D03*
Y3992000D03*
Y4246000D03*
X6912000Y1928000D03*
Y2182000D03*
Y2436000D03*
Y2690000D03*
X6962000Y3738000D03*
Y3992000D03*
Y4246000D03*
Y4500000D03*
X9500000Y3754000D03*
Y3500000D03*
G54D13*
X635000Y1397000D03*
Y2413000D03*
X1778000Y952500D03*
X2794000D03*
X3260000Y1180000D03*
Y2196000D03*
X4354000Y1400000D03*
X4700000Y4700000D03*
Y5716000D03*
X5370000Y1400000D03*
X8699500Y1206500D03*
X8290000Y2490000D03*
X8700000Y2480000D03*
X8699500Y2222500D03*
X8700000Y3496000D03*
Y3800000D03*
X8290000Y3506000D03*
Y3794000D03*
X8700000Y4816000D03*
X8290000Y4810000D03*
G54D14*
X1900000Y2700000D03*
X3800000D03*
X6150000Y2690000D03*
X6200000Y4500000D03*
G54D15*
X1900000Y4000000D03*
X3700000Y3500000D03*
G54D16*
X1900000Y3746000D03*
Y3492000D03*
X3700000Y3754000D03*
Y4008000D03*
G54D17*
G01X1900000Y3746000D02*
X500000D01*
G01X1900000Y1938000D02*
X2187000Y1651000D01*
X3513000D01*
X3800000Y1938000D01*
G01X2624400Y3746000D02*
X1900000D01*
G01X2662000Y2446000D02*
X3200500Y2984500D01*
X4023500D01*
X4562000Y2446000D01*
G01X2780000Y3750000D02*
X2628400D01*
G01D02*
X2624400Y3746000D01*
G01X3700000Y4008000D02*
X5216400D01*
X5218400Y4010000D01*
X5370000D01*
G01X6912000Y2436000D02*
X6236500Y3111500D01*
X6096000D01*
X5430500Y2446000D01*
X4562000D01*
G01X5370000Y4010000D02*
X5928000D01*
X6200000Y3738000D01*
G54D18*
G01X635000Y1259100D02*
Y1397000D01*
G01D02*
Y1534900D01*
G01Y1397000D02*
X772900D01*
G01X1000000Y1900000D02*
X1254000Y2154000D01*
G01X1000000Y2408000D02*
X1735400D01*
X1773400Y2446000D01*
X1900000D01*
G01X1000000Y2408000D02*
X773000D01*
X768000Y2413000D01*
X635000D01*
G01X500000Y3492000D02*
X645700Y3346300D01*
X3546300D01*
X3700000Y3500000D01*
G01X500000Y4000000D02*
X1900000D01*
G01X1546000Y1318500D02*
Y1450000D01*
G01D02*
Y1581500D01*
G01X1414500Y1450000D02*
X1546000D01*
G01X1254000Y2154000D02*
X1758900D01*
X1847500Y2065400D01*
X2535400D01*
X2662000Y2192000D01*
G01X1768500Y4800000D02*
X1900000D01*
G01Y4000000D02*
X2649400D01*
X2653400Y4004000D01*
X2780000D01*
G01X1900000Y4800000D02*
Y4931500D01*
G01Y4800000D02*
X2031500D01*
G01X2794000Y952500D02*
X3032500D01*
X3260000Y1180000D01*
G01Y2196000D02*
X3669400D01*
X3673400Y2192000D01*
X3800000D01*
G01X2780000Y3618500D02*
Y3750000D01*
G01D02*
X2911500D01*
G01X3700000Y3500000D02*
X4700000D01*
G01X3549400Y3754000D02*
X3700000D01*
G01D02*
X3850600D01*
G01X3700000Y4700000D02*
X4700000D01*
G01X4562000Y2192000D02*
X6013400D01*
X6023400Y2182000D01*
X6150000D01*
G01X4700000Y3754000D02*
Y3885500D01*
G01X4568500Y3754000D02*
X4700000D01*
G01D02*
X4831500D01*
G01X5370000Y1262100D02*
Y1400000D01*
G01D02*
Y1537900D01*
G01X5232100Y1400000D02*
X5370000D01*
G01D02*
X5507900D01*
G01X5370000Y3624500D02*
Y3756000D01*
G01X5238500D02*
X5370000D01*
G01D02*
X5501500D01*
G01X8290000Y3506000D02*
X8157000D01*
X8143500Y3492500D01*
X6699500D01*
X6200000Y3992000D01*
G01X6068500Y4246000D02*
X6200000D01*
G01D02*
X6331500D01*
G01X6912000Y2182000D02*
X8526000D01*
X8566500Y2222500D01*
X8699500D01*
G01X6962000Y3992000D02*
X8280100D01*
X8700000Y3572100D01*
Y3496000D01*
G01X8699500Y2222500D02*
X8509000Y2413000D01*
Y3575000D01*
X8290000Y3794000D01*
G01X8700000Y3800000D02*
Y3937900D01*
G01Y3800000D02*
X8837900D01*
G01X8700000Y3496000D02*
X9369400D01*
X9373400Y3500000D01*
X9500000D01*
G01X8290000Y4810000D02*
X8561000D01*
X8567000Y4816000D01*
X8700000D01*
G01X9500000Y3754000D02*
Y3885500D01*
G01X9368500Y3754000D02*
X9500000D01*
M02*
